<svg width="805" height="495" viewBox="0 0 805 495" fill="none" xmlns="http://www.w3.org/2000/svg">
<g clip-path="url(#clip0)">
<rect width="805" height="495" fill="#2D3748"/>
<path d="M183.374 481.592C164.258 490.049 147.125 500.599 129 510.102C131.533 513.717 136.664 529.202 141.325 531.695C155.129 539.081 186.703 538.555 201.498 539.712C270.889 545.136 340.625 548.726 410.293 551.737L414.415 551.915C490.309 555.197 566.982 558.513 643.012 556.262C692.668 554.793 755.037 552.628 793.808 526.653C825.205 505.617 826.003 472.314 824.62 444.03C823.221 415.436 818.08 386.769 814.289 358.304C810.98 333.462 812.594 300.279 786.921 280.529C763.407 262.441 723.02 257.459 690.136 259.389C651.741 261.642 615.712 274.478 587.641 293.007C566.31 307.087 546.418 326.386 563.898 346.925C578.738 364.362 614.274 376.951 613.831 400.003C613.238 430.905 547.343 438.491 516.684 441.767C446.312 449.287 374.848 441.072 304.627 449.202C253.199 455.156 227.85 461.913 183.374 481.592Z" fill="#354869"/>
<path d="M-22.9994 272.701C-45.8209 271.873 -48.6648 255.367 -48.894 236.345C-52.361 231.145 -69.5373 216.46 -72.7868 210.58C-77.6996 201.69 -77.9183 191.118 -78.4694 181.198C-79.5324 162.064 -78.8555 142.84 -77.6945 123.726C-75.9135 94.4018 -75.1137 58.3878 -52.8977 36.0329C-30.2311 13.2247 9.40022 11.7818 39.1865 10.2028C95.3833 7.22367 152.116 10.3442 208.238 13.4312L208.244 13.4315C254.205 15.9596 302.663 16.4913 347.404 28.5421C378.224 36.8436 425.824 57.7566 431.804 94.0214C435.24 114.862 415.964 133.914 400.549 144.648C371.599 164.809 337.17 168.963 302.782 168.412C267.644 167.849 232.634 164.231 197.46 164.667C161.815 165.108 129.368 170.731 99.0477 190.368C76.5592 204.932 59.3852 224.326 40.3489 242.803C23.0837 259.56 2.16753 273.614 -22.9994 272.701Z" fill="#354869"/>
<path d="M74 301.239C83.0404 284.947 90.9111 273.906 110.62 271.595C126.946 269.68 142.664 273.844 157.484 264.62C171.608 255.828 177.06 243.671 178.627 228" stroke="#656565" stroke-width="5" stroke-linecap="round" stroke-linejoin="round"/>
<path d="M110.045 338.176C119.085 321.884 126.956 310.844 146.665 308.532C162.991 306.617 178.709 310.781 193.529 301.557C207.653 292.765 213.105 280.608 214.672 264.937" stroke="#656565" stroke-width="5" stroke-linecap="round" stroke-linejoin="round"/>
<path d="M507 130C514.333 129.333 521.667 128.667 529 128" stroke="#656565" stroke-width="8" stroke-linecap="round" stroke-linejoin="round"/>
<path d="M578 146C585.667 145 593.333 144 601 143" stroke="#656565" stroke-width="8" stroke-linecap="round" stroke-linejoin="round"/>
<path d="M500 175C507.333 174 514.667 173 522 172" stroke="#656565" stroke-width="8" stroke-linecap="round" stroke-linejoin="round"/>
<path d="M581 189C588.667 188 596.333 187 604 186" stroke="#656565" stroke-width="8" stroke-linecap="round" stroke-linejoin="round"/>
<path d="M581 103C588.667 102 596.333 101 604 100" stroke="#9F7AEA" stroke-width="8" stroke-linecap="round" stroke-linejoin="round"/>
<path d="M550 126C559.667 126 569.333 126 579 126" stroke="#656565" stroke-width="8" stroke-linecap="round" stroke-linejoin="round"/>
<path d="M622 141C631.333 141 640.667 141 650 141" stroke="#9F7AEA" stroke-width="8" stroke-linecap="round" stroke-linejoin="round"/>
<path d="M544 170C553.333 170 562.667 170 572 170" stroke="#9F7AEA" stroke-width="8" stroke-linecap="round" stroke-linejoin="round"/>
<path d="M625 184C634.333 184 643.667 184 653 184" stroke="#656565" stroke-width="8" stroke-linecap="round" stroke-linejoin="round"/>
<path d="M625 98C634.333 98 643.667 98 653 98" stroke="#656565" stroke-width="8" stroke-linecap="round" stroke-linejoin="round"/>
<path d="M528 149C537.327 147.617 546.656 146.281 556 145" stroke="#656565" stroke-width="8" stroke-linecap="round" stroke-linejoin="round"/>
<path d="M599 164C608.66 162.617 618.323 161.281 628 160" stroke="#656565" stroke-width="8" stroke-linecap="round" stroke-linejoin="round"/>
<path d="M521 194C530.327 192.272 539.656 190.602 549 189" stroke="#656565" stroke-width="8" stroke-linecap="round" stroke-linejoin="round"/>
<path d="M602 207C611.66 205.617 621.323 204.281 631 203" stroke="#9F7AEA" stroke-width="8" stroke-linecap="round" stroke-linejoin="round"/>
<path d="M602 122C611.66 120.272 621.323 118.602 631 117" stroke="#656565" stroke-width="8" stroke-linecap="round" stroke-linejoin="round"/>
<path d="M701 327C701 351 701 361.745 677 351C664.902 345.584 653 340.255 653 327C653 313.745 663.745 303 677 303C690.255 303 701 313.745 701 327Z" fill="#9F7AEA"/>
<path d="M182 268.686C182 278.454 156.545 301 146.593 301C136.641 301 145.961 293.082 145.961 268.686C145.961 258.918 154.029 251 163.981 251C173.932 251 182 258.918 182 268.686Z" fill="#9F7AEA"/>
<path d="M89.045 320.176C98.0854 303.884 105.956 292.844 125.665 290.532C141.991 288.617 157.709 292.781 172.529 283.557C186.653 274.765 192.105 262.608 193.672 246.937" stroke="#656565" stroke-width="5" stroke-linecap="round" stroke-linejoin="round"/>
<path d="M670 354.5H718M670 354.5V396H718M670 354.5L710.5 314H758.5M718 354.5V396M718 354.5L738.25 334.25L758.5 314M718 396L758.5 355.5V314" stroke="#656565" stroke-width="5"/>
<circle cx="159.057" cy="427.821" r="3.70171" transform="rotate(-30 159.057 427.821)" fill="#656565"/>
<circle cx="179.046" cy="462.443" r="3.70171" transform="rotate(-30 179.046 462.443)" fill="#656565"/>
<circle cx="193.679" cy="407.831" r="3.70171" transform="rotate(-30 193.679 407.831)" fill="#656565"/>
<circle cx="234.964" cy="399.383" r="3.70171" transform="rotate(-30 234.964 399.383)" fill="#656565"/>
<circle cx="213.668" cy="442.454" r="3.70171" transform="rotate(-30 213.668 442.454)" fill="#656565"/>
<circle cx="254.954" cy="434.005" r="3.70171" transform="rotate(-30 254.954 434.005)" fill="#656565"/>
<circle cx="233.657" cy="477.076" r="3.70171" transform="rotate(-30 233.657 477.076)" fill="#656565"/>
<circle cx="170.597" cy="421.157" r="3.70171" transform="rotate(-30 170.597 421.157)" fill="#656565"/>
<circle cx="190.587" cy="455.78" r="3.70171" transform="rotate(-30 190.587 455.78)" fill="#656565"/>
<circle cx="205.22" cy="401.168" r="3.70171" transform="rotate(-30 205.22 401.168)" fill="#656565"/>
<circle cx="246.505" cy="392.72" r="3.70171" transform="rotate(-30 246.505 392.72)" fill="#656565"/>
<circle cx="225.209" cy="435.791" r="3.70171" transform="rotate(-30 225.209 435.791)" fill="#656565"/>
<circle cx="266.495" cy="427.342" r="3.70171" transform="rotate(-30 266.495 427.342)" fill="#656565"/>
<circle cx="245.198" cy="470.413" r="3.70171" transform="rotate(-30 245.198 470.413)" fill="#656565"/>
<circle cx="182.138" cy="414.494" r="3.70171" transform="rotate(-30 182.138 414.494)" fill="#656565"/>
<circle cx="202.127" cy="449.117" r="3.70171" transform="rotate(-30 202.127 449.117)" fill="#656565"/>
<circle cx="222.117" cy="483.739" r="3.70171" transform="rotate(-30 222.117 483.739)" fill="#656565"/>
<circle cx="216.761" cy="394.505" r="3.70171" transform="rotate(-30 216.761 394.505)" fill="#656565"/>
<circle cx="258.046" cy="386.057" r="3.70171" transform="rotate(-30 258.046 386.057)" fill="#656565"/>
<circle cx="236.75" cy="429.128" r="3.70171" transform="rotate(-30 236.75 429.128)" fill="#9F7AEA"/>
<circle cx="278.035" cy="420.679" r="3.70171" transform="rotate(-30 278.035 420.679)" fill="#656565"/>
<circle cx="256.739" cy="463.75" r="3.70171" transform="rotate(-30 256.739 463.75)" fill="#656565"/>
<circle cx="165.72" cy="439.361" r="3.70171" transform="rotate(-30 165.72 439.361)" fill="#656565"/>
<circle cx="185.709" cy="473.984" r="3.70171" transform="rotate(-30 185.709 473.984)" fill="#656565"/>
<circle cx="200.342" cy="419.372" r="3.70171" transform="rotate(-30 200.342 419.372)" fill="#656565"/>
<circle cx="241.628" cy="410.924" r="3.70171" transform="rotate(-30 241.628 410.924)" fill="#656565"/>
<circle cx="220.331" cy="453.994" r="3.70171" transform="rotate(-30 220.331 453.994)" fill="#656565"/>
<circle cx="240.321" cy="488.617" r="3.70171" transform="rotate(-30 240.321 488.617)" fill="#656565"/>
<circle cx="172.383" cy="450.902" r="3.70171" transform="rotate(-30 172.383 450.902)" fill="#656565"/>
<circle cx="192.372" cy="485.525" r="3.70171" transform="rotate(-30 192.372 485.525)" fill="#656565"/>
<circle cx="207.005" cy="430.913" r="3.70171" transform="rotate(-30 207.005 430.913)" fill="#656565"/>
<circle cx="248.291" cy="422.464" r="3.70171" transform="rotate(-30 248.291 422.464)" fill="#656565"/>
<circle cx="226.994" cy="465.535" r="3.70171" transform="rotate(-30 226.994 465.535)" fill="#9F7AEA"/>
<circle cx="177.26" cy="432.698" r="3.70171" transform="rotate(-30 177.26 432.698)" fill="#656565"/>
<circle cx="197.25" cy="467.321" r="3.70171" transform="rotate(-30 197.25 467.321)" fill="#656565"/>
<circle cx="211.883" cy="412.709" r="3.70171" transform="rotate(-30 211.883 412.709)" fill="#656565"/>
<circle cx="253.168" cy="404.261" r="3.70171" transform="rotate(-30 253.168 404.261)" fill="#656565"/>
<circle cx="231.872" cy="447.331" r="3.70171" transform="rotate(-30 231.872 447.331)" fill="#656565"/>
<circle cx="251.861" cy="481.954" r="3.70171" transform="rotate(-30 251.861 481.954)" fill="#656565"/>
<circle cx="183.924" cy="444.239" r="3.70171" transform="rotate(-30 183.924 444.239)" fill="#656565"/>
<circle cx="203.913" cy="478.861" r="3.70171" transform="rotate(-30 203.913 478.861)" fill="#656565"/>
<circle cx="218.546" cy="424.25" r="3.70171" transform="rotate(-30 218.546 424.25)" fill="#656565"/>
<circle cx="259.831" cy="415.801" r="3.70171" transform="rotate(-30 259.831 415.801)" fill="#656565"/>
<circle cx="238.535" cy="458.872" r="3.70171" transform="rotate(-30 238.535 458.872)" fill="#656565"/>
<circle cx="258.524" cy="493.495" r="3.70171" transform="rotate(-30 258.524 493.495)" fill="#656565"/>
<circle cx="188.801" cy="426.035" r="3.70171" transform="rotate(-30 188.801 426.035)" fill="#656565"/>
<circle cx="208.79" cy="460.658" r="3.70171" transform="rotate(-30 208.79 460.658)" fill="#656565"/>
<circle cx="228.78" cy="495.28" r="3.70171" transform="rotate(-30 228.78 495.28)" fill="#656565"/>
<circle cx="223.424" cy="406.046" r="3.70171" transform="rotate(-30 223.424 406.046)" fill="#656565"/>
<circle cx="264.709" cy="397.597" r="3.70171" transform="rotate(-30 264.709 397.597)" fill="#656565"/>
<circle cx="243.413" cy="440.668" r="3.70171" transform="rotate(-30 243.413 440.668)" fill="#656565"/>
<circle cx="261.617" cy="445.546" r="3.70171" transform="rotate(-30 261.617 445.546)" fill="#656565"/>
<circle cx="263.402" cy="475.291" r="3.70171" transform="rotate(-30 263.402 475.291)" fill="#656565"/>
<circle cx="195.464" cy="437.576" r="3.70171" transform="rotate(-30 195.464 437.576)" fill="#656565"/>
<circle cx="215.454" cy="472.198" r="3.70171" transform="rotate(-30 215.454 472.198)" fill="#656565"/>
<circle cx="230.087" cy="417.587" r="3.70171" transform="rotate(-30 230.087 417.587)" fill="#656565"/>
<circle cx="271.372" cy="409.138" r="3.70171" transform="rotate(-30 271.372 409.138)" fill="#656565"/>
<circle cx="250.076" cy="452.209" r="3.70171" transform="rotate(-30 250.076 452.209)" fill="#656565"/>
<circle cx="270.065" cy="486.831" r="3.70171" transform="rotate(-30 270.065 486.831)" fill="#656565"/>
<path d="M5.84732 212.556C-16.9742 211.728 -19.8181 195.222 -20.0473 176.2C-23.5143 170.999 -40.6907 156.314 -43.9401 150.434C-48.8529 141.545 -49.0716 130.973 -49.6228 121.053C-50.6858 101.919 -50.0088 82.6946 -48.8479 63.5809C-47.0668 34.2567 -46.2671 -1.7573 -24.051 -24.1122C-1.38445 -46.9204 38.2469 -48.3633 68.0332 -49.9423C124.23 -52.9214 180.963 -49.8009 237.085 -46.7139L237.091 -46.7135C283.052 -44.1855 331.51 -43.6538 376.251 -31.6029C407.071 -23.3015 454.67 -2.38849 460.65 33.8763C464.087 54.7174 444.81 73.769 429.396 84.5032C400.445 104.664 366.017 108.818 331.629 108.267C296.49 107.704 261.481 104.086 226.307 104.522C190.662 104.963 158.215 110.586 127.894 130.222C105.406 144.786 88.2319 164.181 69.1956 182.658C51.9304 199.415 31.0142 213.469 5.84732 212.556Z" fill="#344259"/>
</g>
<defs>
<clipPath id="clip0">
<rect width="805" height="495" fill="white"/>
</clipPath>
</defs>
</svg>
