<svg width="148" height="85" viewBox="0 0 148 85" fill="none" xmlns="http://www.w3.org/2000/svg">
<path d="M130.388 18.495C120.23 13.0227 106.82 3.17685 94.284 4.8782C90.1932 5.43338 88.9892 7.22958 87.9071 10.5359C87.8722 10.6426 88.3185 13.2564 87.2359 12.4058C78.9049 5.86002 69.1886 4.54005 58.6599 5.26177C50.7861 5.80151 33.8456 7.43608 32.0017 17.6799C31.6301 19.7447 32.9568 19.4498 30.1798 19.1183C25.5355 18.5637 23.8923 17.7211 18.8644 19.5018C6.62565 23.8364 1.61806 37.2792 8.79572 48.3655C12.5406 54.1496 21.1135 59.943 28.214 56.9C29.3278 56.4226 26.1565 58.2912 25.481 59.2973C23.3735 62.4361 21.8402 65.781 23.2276 69.7496C26.6815 79.6294 40.2058 80.4482 48.6871 79.9621C55.9411 79.5464 63.4131 77.3977 69.9752 74.3045C72.5814 73.076 74.3936 70.2899 77.1672 69.5098C78.4359 69.153 78.708 71.6674 79.6604 72.5784C82.8448 75.6244 86.0766 77.0194 90.5921 77.6607C100.7 79.0963 113.716 77.3228 119.839 68.1673C123.119 63.2648 120.62 63.5411 126.744 63.6604C134.256 63.8067 141.447 59.1658 142.854 51.2902C145.669 35.5219 125.561 27.723 113.99 23.6732" stroke="black" stroke-width="9" stroke-linecap="round" stroke-linejoin="round"/>
</svg>
